<svg xmlns="http://www.w3.org/2000/svg" width="28.526" height="27.813" viewBox="0 0 28.526 27.813">

  <path id="Icon_awesome-github" data-name="Icon awesome-github" d="M9.541,22.958c0,.115-.132.207-.3.207-.19.017-.322-.075-.322-.207,0-.115.132-.207.3-.207C9.392,22.733,9.541,22.825,9.541,22.958ZM7.753,22.7c-.04.115.075.247.247.282a.27.27,0,0,0,.357-.115c.035-.115-.075-.247-.247-.3A.3.3,0,0,0,7.753,22.7Zm2.542-.1c-.167.04-.282.15-.265.282.017.115.167.19.339.15s.282-.15.265-.265S10.461,22.584,10.295,22.6ZM14.079.563A13.791,13.791,0,0,0,0,14.6,14.419,14.419,0,0,0,9.748,28.352c.736.132.995-.322.995-.7,0-.357-.017-2.323-.017-3.531,0,0-4.026.863-4.871-1.714,0,0-.656-1.674-1.6-2.1,0,0-1.317-.9.092-.886A3.036,3.036,0,0,1,6.568,20.9a3.04,3.04,0,0,0,4.193,1.2,3.2,3.2,0,0,1,.92-1.938c-3.215-.357-6.459-.822-6.459-6.355a4.359,4.359,0,0,1,1.357-3.387,5.434,5.434,0,0,1,.15-3.905c1.2-.374,3.968,1.553,3.968,1.553a13.587,13.587,0,0,1,7.223,0s2.766-1.932,3.968-1.553a5.431,5.431,0,0,1,.15,3.905,4.471,4.471,0,0,1,1.484,3.387c0,5.55-3.387,5.993-6.6,6.355a3.4,3.4,0,0,1,.978,2.669c0,1.938-.017,4.336-.017,4.808,0,.374.265.828.995.7A14.286,14.286,0,0,0,28.526,14.6,14.1,14.1,0,0,0,14.079.563ZM5.59,20.4c-.075.058-.058.19.04.3.092.092.224.132.3.058.075-.058.058-.19-.04-.3C5.8,20.364,5.665,20.324,5.59,20.4Zm-.621-.466c-.04.075.017.167.132.224a.171.171,0,0,0,.247-.04c.04-.075-.017-.167-.132-.224C5.1,19.858,5.009,19.875,4.969,19.933ZM6.832,21.98c-.092.075-.058.247.075.357.132.132.3.15.374.058.075-.075.04-.247-.075-.357C7.08,21.905,6.907,21.888,6.832,21.98Zm-.656-.845c-.092.058-.092.207,0,.339s.247.19.322.132a.262.262,0,0,0,0-.357C6.418,21.117,6.269,21.06,6.177,21.135Z" transform="translate(0 -0.563)" fill="#fff"/>

</svg>