<svg xmlns="http://www.w3.org/2000/svg" width="26.643" height="26.643" viewBox="0 0 26.643 26.643">

  <path id="Icon_awesome-linkedin" data-name="Icon awesome-linkedin" d="M24.74,2.25H1.9A1.911,1.911,0,0,0,0,4.171v22.8a1.911,1.911,0,0,0,1.9,1.921H24.74a1.916,1.916,0,0,0,1.9-1.921V4.171A1.916,1.916,0,0,0,24.74,2.25ZM8.052,25.087H4.1V12.372H8.058V25.087ZM6.078,10.635a2.29,2.29,0,1,1,2.29-2.29,2.291,2.291,0,0,1-2.29,2.29ZM22.855,25.087H18.906V18.9c0-1.475-.03-3.372-2.052-3.372-2.058,0-2.373,1.606-2.373,3.265v6.292H10.532V12.372h3.788v1.737h.054a4.159,4.159,0,0,1,3.741-2.052c4,0,4.74,2.635,4.74,6.06Z" transform="translate(0 -2.25)" fill="#fff"/>

</svg>